<svg xmlns="http://www.w3.org/2000/svg" viewBox="0 0 1080 1080">
  <defs>
    <linearGradient id="bgGrad1" x1="0%" y1="0%" x2="0%" y2="100%">
      <stop offset="0%" style="stop-color:#1A237E"/>
      <stop offset="100%" style="stop-color:#283593"/>
    </linearGradient>
    <filter id="shadow1" x="-20%" y="-20%" width="140%" height="140%">
      <feDropShadow dx="0" dy="4" stdDeviation="8" flood-opacity="0.3"/>
    </filter>
  </defs>
  <rect width="1080" height="1080" fill="url(#bgGrad1)"/>
  <rect x="0" y="0" width="1080" height="12" fill="#F9A825"/>
  <rect x="0" y="1068" width="1080" height="12" fill="#F9A825"/>
  <text x="540" y="180" text-anchor="middle" font-family="Tahoma" font-size="72" font-weight="bold" fill="white">طرح مجلس مهستان</text>
  <text x="540" y="260" text-anchor="middle" font-family="Tahoma" font-size="36" fill="#F9A825">چارچوب نهادی گذار دموکراتیک ایران</text>
  <line x1="340" y1="320" x2="740" y2="320" stroke="#F9A825" stroke-width="4"/>
  <circle cx="540" cy="540" r="180" fill="#1565C0" filter="url(#shadow1)"/>
  <circle cx="540" cy="540" r="150" fill="#1A237E" stroke="#F9A825" stroke-width="4"/>
  <text x="540" y="520" text-anchor="middle" font-family="Tahoma" font-size="120" font-weight="bold" fill="#F9A825">۳۰۰</text>
  <text x="540" y="590" text-anchor="middle" font-family="Tahoma" font-size="32" fill="white">نماینده‌ی منتخب مردم</text>
  <rect x="80" y="420" width="200" height="100" rx="12" fill="#BBDEFB"/>
  <text x="180" y="465" text-anchor="middle" font-family="Tahoma" font-size="40" font-weight="bold" fill="#1565C0">۲۴۰</text>
  <text x="180" y="500" text-anchor="middle" font-family="Tahoma" font-size="22" fill="#1565C0">کرسی استانی</text>
  <rect x="80" y="560" width="200" height="100" rx="12" fill="#FFF9C4"/>
  <text x="180" y="605" text-anchor="middle" font-family="Tahoma" font-size="40" font-weight="bold" fill="#F9A825">۴۰</text>
  <text x="180" y="640" text-anchor="middle" font-family="Tahoma" font-size="22" fill="#F9A825">کرسی ملی</text>
  <rect x="800" y="490" width="200" height="100" rx="12" fill="#F3E5F5"/>
  <text x="900" y="535" text-anchor="middle" font-family="Tahoma" font-size="40" font-weight="bold" fill="#6A1B9A">۲۰</text>
  <text x="900" y="570" text-anchor="middle" font-family="Tahoma" font-size="22" fill="#6A1B9A">کرسی اقلیت‌ها</text>
  <line x1="280" y1="470" x2="390" y2="500" stroke="#BBDEFB" stroke-width="3"/>
  <line x1="280" y1="610" x2="390" y2="580" stroke="#FFF9C4" stroke-width="3"/>
  <line x1="800" y1="540" x2="690" y2="540" stroke="#F3E5F5" stroke-width="3"/>
  <rect x="140" y="800" width="800" height="120" rx="16" fill="rgba(255,255,255,0.1)"/>
  <text x="540" y="855" text-anchor="middle" font-family="Tahoma" font-size="32" fill="white">نهاد عالی حاکمیت دوران گذار</text>
  <text x="540" y="900" text-anchor="middle" font-family="Tahoma" font-size="28" fill="white">حداکثر ۲ سال — منتخب مستقیم مردم</text>
  <text x="540" y="1020" text-anchor="middle" font-family="Tahoma" font-size="24" fill="rgba(255,255,255,0.5)">۱ / ۶</text>
</svg>
