<svg xmlns="http://www.w3.org/2000/svg" viewBox="0 0 1080 1080">
  <defs>
    <linearGradient id="bgGrad4" x1="0%" y1="0%" x2="0%" y2="100%">
      <stop offset="0%" style="stop-color:#1A237E"/>
      <stop offset="100%" style="stop-color:#283593"/>
    </linearGradient>
  </defs>
  <rect width="1080" height="1080" fill="url(#bgGrad4)"/>
  <rect x="0" y="0" width="1080" height="10" fill="#6A1B9A"/>
  <rect x="0" y="1070" width="1080" height="10" fill="#6A1B9A"/>
  <text x="540" y="90" text-anchor="middle" font-family="Tahoma" font-size="52" font-weight="bold" fill="white">۵ ستون عدالت انتقالی</text>
  <line x1="320" y1="130" x2="760" y2="130" stroke="#6A1B9A" stroke-width="3"/>
  <rect x="40" y="200" width="190" height="480" rx="12" fill="#BBDEFB" stroke="#1565C0" stroke-width="2"/>
  <circle cx="135" cy="260" r="35" fill="#1565C0"/>
  <text x="135" y="270" text-anchor="middle" font-family="Tahoma" font-size="28" font-weight="bold" fill="white">۱</text>
  <text x="135" y="330" text-anchor="middle" font-family="Tahoma" font-size="20" font-weight="bold" fill="#1565C0">حقیقت‌یابی</text>
  <line x1="70" y1="350" x2="200" y2="350" stroke="#1565C0" stroke-width="1"/>
  <text x="135" y="390" text-anchor="middle" font-family="Tahoma" font-size="14" fill="#1565C0">کمیسیون حقیقت</text>
  <text x="135" y="420" text-anchor="middle" font-family="Tahoma" font-size="14" fill="#1565C0">مستندسازی جنایات</text>
  <text x="135" y="450" text-anchor="middle" font-family="Tahoma" font-size="14" fill="#1565C0">ثبت شهادت‌ها</text>
  <rect x="250" y="200" width="190" height="480" rx="12" fill="#FFCDD2" stroke="#C62828" stroke-width="2"/>
  <circle cx="345" cy="260" r="35" fill="#C62828"/>
  <text x="345" y="270" text-anchor="middle" font-family="Tahoma" font-size="28" font-weight="bold" fill="white">۲</text>
  <text x="345" y="330" text-anchor="middle" font-family="Tahoma" font-size="20" font-weight="bold" fill="#C62828">عدالت کیفری</text>
  <line x1="280" y1="350" x2="410" y2="350" stroke="#C62828" stroke-width="1"/>
  <text x="345" y="390" text-anchor="middle" font-family="Tahoma" font-size="14" fill="#C62828">محاکمات عادلانه</text>
  <text x="345" y="420" text-anchor="middle" font-family="Tahoma" font-size="14" fill="#C62828">تفکیک مسئولیت</text>
  <text x="345" y="450" text-anchor="middle" font-family="Tahoma" font-size="14" fill="#C62828">دادرسی عادلانه</text>
  <rect x="460" y="200" width="190" height="480" rx="12" fill="#FFF3E0" stroke="#E65100" stroke-width="2"/>
  <circle cx="555" cy="260" r="35" fill="#E65100"/>
  <text x="555" y="270" text-anchor="middle" font-family="Tahoma" font-size="28" font-weight="bold" fill="white">۳</text>
  <text x="555" y="330" text-anchor="middle" font-family="Tahoma" font-size="20" font-weight="bold" fill="#E65100">جبران خسارت</text>
  <line x1="490" y1="350" x2="620" y2="350" stroke="#E65100" stroke-width="1"/>
  <text x="555" y="390" text-anchor="middle" font-family="Tahoma" font-size="14" fill="#E65100">غرامت مالی</text>
  <text x="555" y="420" text-anchor="middle" font-family="Tahoma" font-size="14" fill="#E65100">اعاده‌ی حیثیت</text>
  <text x="555" y="450" text-anchor="middle" font-family="Tahoma" font-size="14" fill="#E65100">خدمات درمانی</text>
  <rect x="670" y="200" width="190" height="480" rx="12" fill="#FFF9C4" stroke="#F9A825" stroke-width="2"/>
  <circle cx="765" cy="260" r="35" fill="#F9A825"/>
  <text x="765" y="270" text-anchor="middle" font-family="Tahoma" font-size="28" font-weight="bold" fill="white">۴</text>
  <text x="765" y="330" text-anchor="middle" font-family="Tahoma" font-size="20" font-weight="bold" fill="#F9A825">آشتی ملی</text>
  <line x1="700" y1="350" x2="830" y2="350" stroke="#F9A825" stroke-width="1"/>
  <text x="765" y="390" text-anchor="middle" font-family="Tahoma" font-size="14" fill="#F9A825">گفتگوهای ملی</text>
  <text x="765" y="420" text-anchor="middle" font-family="Tahoma" font-size="14" fill="#F9A825">موزه‌ها و یادبود</text>
  <text x="765" y="450" text-anchor="middle" font-family="Tahoma" font-size="14" fill="#F9A825">روز ملی یادبود</text>
  <rect x="880" y="200" width="160" height="480" rx="12" fill="#C8E6C9" stroke="#2E7D32" stroke-width="2"/>
  <circle cx="960" cy="260" r="35" fill="#2E7D32"/>
  <text x="960" y="270" text-anchor="middle" font-family="Tahoma" font-size="28" font-weight="bold" fill="white">۵</text>
  <text x="960" y="330" text-anchor="middle" font-family="Tahoma" font-size="20" font-weight="bold" fill="#2E7D32">عدم تکرار</text>
  <line x1="900" y1="350" x2="1020" y2="350" stroke="#2E7D32" stroke-width="1"/>
  <text x="960" y="390" text-anchor="middle" font-family="Tahoma" font-size="14" fill="#2E7D32">اصلاح نهادی</text>
  <text x="960" y="420" text-anchor="middle" font-family="Tahoma" font-size="14" fill="#2E7D32">آموزش حقوق بشر</text>
  <text x="960" y="450" text-anchor="middle" font-family="Tahoma" font-size="14" fill="#2E7D32">نهادهای نظارتی</text>
  <rect x="150" y="750" width="780" height="80" rx="15" fill="rgba(255,255,255,0.1)"/>
  <text x="540" y="800" text-anchor="middle" font-family="Tahoma" font-size="26" fill="white">عدالت + آشتی = صلح پایدار</text>
  <text x="540" y="1020" text-anchor="middle" font-family="Tahoma" font-size="24" fill="rgba(255,255,255,0.5)">۴ / ۶</text>
</svg>
