<?xml version="1.0" encoding="utf-8" ?>
<svg baseProfile="full" height="1350" version="1.1" width="1080" xmlns="http://www.w3.org/2000/svg" xmlns:ev="http://www.w3.org/2001/xml-events" xmlns:xlink="http://www.w3.org/1999/xlink"><defs><linearGradient id="bgGrad" x1="0%" x2="100%" y1="0%" y2="100%"><stop offset="0%" stop-color="#0f172a" /><stop offset="100%" stop-color="#1e3a8a" /></linearGradient></defs><style type="text/css"><![CDATA[
@import url('https://fonts.googleapis.com/css2?family=Vazirmatn:wght@400;700;900&display=swap');
text { font-family: 'Vazirmatn', sans-serif; }
]]></style><rect fill="url(#bgGrad)" height="100%" width="100%" x="0" y="0" /><polygon fill="#1e1b4b" opacity="0.4" points="1080,0 680,0 1080,300" /><circle cx="150" cy="1200" fill="#2dd4bf" opacity="0.05" r="300" /><circle cx="980" cy="850" fill="#fbbf24" opacity="0.08" r="150" /><line opacity="0.02" stroke="#ffffff" stroke-width="1" x1="0" x2="0" y1="0" y2="1350" /><line opacity="0.02" stroke="#ffffff" stroke-width="1" x1="100" x2="100" y1="0" y2="1350" /><line opacity="0.02" stroke="#ffffff" stroke-width="1" x1="200" x2="200" y1="0" y2="1350" /><line opacity="0.02" stroke="#ffffff" stroke-width="1" x1="300" x2="300" y1="0" y2="1350" /><line opacity="0.02" stroke="#ffffff" stroke-width="1" x1="400" x2="400" y1="0" y2="1350" /><line opacity="0.02" stroke="#ffffff" stroke-width="1" x1="500" x2="500" y1="0" y2="1350" /><line opacity="0.02" stroke="#ffffff" stroke-width="1" x1="600" x2="600" y1="0" y2="1350" /><line opacity="0.02" stroke="#ffffff" stroke-width="1" x1="700" x2="700" y1="0" y2="1350" /><line opacity="0.02" stroke="#ffffff" stroke-width="1" x1="800" x2="800" y1="0" y2="1350" /><line opacity="0.02" stroke="#ffffff" stroke-width="1" x1="900" x2="900" y1="0" y2="1350" /><line opacity="0.02" stroke="#ffffff" stroke-width="1" x1="1000" x2="1000" y1="0" y2="1350" /><line opacity="0.02" stroke="#ffffff" stroke-width="1" x1="0" x2="1080" y1="0" y2="0" /><line opacity="0.02" stroke="#ffffff" stroke-width="1" x1="0" x2="1080" y1="100" y2="100" /><line opacity="0.02" stroke="#ffffff" stroke-width="1" x1="0" x2="1080" y1="200" y2="200" /><line opacity="0.02" stroke="#ffffff" stroke-width="1" x1="0" x2="1080" y1="300" y2="300" /><line opacity="0.02" stroke="#ffffff" stroke-width="1" x1="0" x2="1080" y1="400" y2="400" /><line opacity="0.02" stroke="#ffffff" stroke-width="1" x1="0" x2="1080" y1="500" y2="500" /><line opacity="0.02" stroke="#ffffff" stroke-width="1" x1="0" x2="1080" y1="600" y2="600" /><line opacity="0.02" stroke="#ffffff" stroke-width="1" x1="0" x2="1080" y1="700" y2="700" /><line opacity="0.02" stroke="#ffffff" stroke-width="1" x1="0" x2="1080" y1="800" y2="800" /><line opacity="0.02" stroke="#ffffff" stroke-width="1" x1="0" x2="1080" y1="900" y2="900" /><line opacity="0.02" stroke="#ffffff" stroke-width="1" x1="0" x2="1080" y1="1000" y2="1000" /><line opacity="0.02" stroke="#ffffff" stroke-width="1" x1="0" x2="1080" y1="1100" y2="1100" /><line opacity="0.02" stroke="#ffffff" stroke-width="1" x1="0" x2="1080" y1="1200" y2="1200" /><line opacity="0.02" stroke="#ffffff" stroke-width="1" x1="0" x2="1080" y1="1300" y2="1300" /><text fill="#94a3b8" font-size="22px" font-weight="400" text-anchor="end" x="1000" y="80">пәӯпәҚпәӘпҜҫпәҺпӯҳ пәӯпәҚпә¬п®” п»ҘпәҚпәӯп»ӯпә© | п»ҘпәҺпәҳпәҙп»¬п»Ј пәІп» пә п»Ј пәЎпә®п»ғ</text><text fill="#94a3b8" font-size="22px" font-weight="400" text-anchor="start" x="80" y="80">Ш§ШіЩ„Ш§ЫҢШҜ 12 Ш§ШІ 33</text><text fill="#fbbf24" font-size="40px" font-weight="700" text-anchor="end" x="1000" y="350">пҜҪп»Ңп»„п»— пәӯп»®п»ҖпәЈ ЩӘЫіЫ° п»һп»—пәҚпәӘпәЈ</text><text fill="#ffffff" font-size="75px" font-weight="900" text-anchor="end" x="1000" y="450">пә–пәёп®”пәҜпәҺпә‘пҜҪпә‘ п»©пәӘп»ӢпәҺп»— :п»ҘпәҺп»§пәҜ п»ӘпҜҝп»Өп»¬пәі</text><line stroke="#2dd4bf" stroke-width="6" x1="1000" x2="850" y1="610" y2="610" /><text fill="#e2e8f0" font-size="45px" font-weight="400" style="line-height: 1.8;" text-anchor="end" x="1000" y="730">пәӘпҜҫпәҺпә‘ пҜҪпә—пәҺпә‘пәҺпәЁпәҳп»§пәҚ пҜјпәҺп»«пә–пәіпә®п»¬п»“ п»қп»ӯпәҚ пә®п»”п»§ п»Әпәі пә®п»«</text><text fill="#e2e8f0" font-size="45px" font-weight="400" style="line-height: 1.8;" text-anchor="end" x="1000" y="815">ШҢпә–пәҙпҜҝп»ҹ пә®п»« пҜјпәҜп»ӯпә®пҜҝпӯҳ .пәӘпә·пәҺпә‘ п»ҘпәҜ п®ҸпҜҫ п»һп»—пәҚпәӘпәЈ п»һп»ЈпәҺпә·</text><text fill="#e2e8f0" font-size="45px" font-weight="400" style="line-height: 1.8;" text-anchor="end" x="1000" y="900">.пә–пәіпәҚ пәІп» пә п»Ј пәӯпә© п»ҘпәҺп»§пәҜ пҜҪп»Ңп»—пәҚп»ӯ пәӯп»®п»ҖпәЈ пҜјпәҺп»Ёп»Ңп»Ј п»Әпә‘</text><text fill="#38bdf8" font-size="26px" font-weight="700" text-anchor="middle" x="540.0" y="1270">.пәӘпҜҫпәӯпәҚпә¬п®•пә‘ п®ҺпәҚпә®пәҳпә·пәҚ п»Әпә‘ п»ҘпәҚпә®пҜҫпәҚ пҜјпәҚпә©пә®п»“ пҜјпәҚпә®пә‘ п»ӯ пәӘпҜҝп»Ёп®җ п»Әп»Ңп»ҹпәҺп»„п»Ј пәҚпәӯ п»һп»ЈпәҺп®җ п»Ұпәҳп»Ј</text></svg>